<?xml version="1.0" encoding="utf-8"?>
<!-- Generator: Adobe Illustrator 24.0.1, SVG Export Plug-In . SVG Version: 6.00 Build 0)  -->
<svg version="1.1" id="レイヤー_1" xmlns="http://www.w3.org/2000/svg" xmlns:xlink="http://www.w3.org/1999/xlink" x="0px"
	 y="0px" viewBox="0 0 171.7 30" style="enable-background:new 0 0 171.7 30;" xml:space="preserve">
<style type="text/css">
	.st0{fill:#D62821;}
</style>
<g>
	<polygon class="st0" points="96.9,7.7 96.9,3.7 110,3.7 110,7.7 105.8,7.7 105.8,19.4 101.1,19.4 101.1,7.7 	"/>
	<polygon class="st0" points="158.7,7.7 158.7,3.7 171.7,3.7 171.7,7.7 167.5,7.7 167.5,19.4 162.8,19.4 162.8,7.7 	"/>
	<path class="st0" d="M113.5,3.7h7.6c3.6,0,5.2,2.1,5.2,4.6c0,1.6-0.7,2.9-2.1,3.6c1,0.5,1.5,1.6,2.2,3.4l1.6,4.1h-4.6l-0.9-2.3
		c-1-2.7-1.7-4.2-3-4.2l-1.3,0v6.5h-4.7V3.7z M119.5,10.5c1.5,0,2.4-0.7,2.4-2.1c0-1.4-0.8-2.1-2.3-2.1h-1.4v4.2L119.5,10.5z"/>
	<polygon class="st0" points="131.4,3.7 141.4,3.7 141.4,7.3 136.1,7.3 136.1,9.9 140.9,9.9 140.9,13.2 136.1,13.2 136.1,15.9 
		141.4,15.9 141.4,19.4 131.4,19.4 	"/>
	<polygon class="st0" points="145.6,3.7 155.6,3.7 155.6,7.3 150.2,7.3 150.2,9.9 155.1,9.9 155.1,13.2 150.2,13.2 150.2,15.9 
		155.6,15.9 155.6,19.4 145.6,19.4 	"/>
	<path class="st0" d="M89.2,14.4c0-0.9-0.8-1.1-1.3-1.2l-0.1,0c0,0-1.1-0.2-1.1-0.2c-1-0.2-3.5-1-3.5-4c0-3.7,3-5.6,5.9-5.6
		c1.5,0,2.9,0.4,4.1,1.2c-0.1,0.4-1,2.8-1.2,3.4c-1-0.7-1.9-1-2.8-1c-0.7,0-1.5,0.4-1.5,1.2c0,0.8,0.8,1,1.2,1.1l1.3,0.3
		c2.4,0.6,3.6,2,3.6,4.3c0,3.7-3.1,5.4-5.9,5.4c-1.7,0-3.6-0.5-5.1-1.3c0.2-0.5,1.1-3.1,1.3-3.8c1.1,1,2.3,1.5,3.4,1.5
		C88.4,15.7,89.2,15.2,89.2,14.4"/>
	<path class="st0" d="M52.7,11.2c0.5,0,0.9,0.2,1.1,0.7c0.1,0.3,0.1,0.7,0.1,1.5v6.1h4.4v-6.9c0-1.3-0.2-2.3-0.6-3
		c-0.6-1.2-1.8-1.8-3.6-1.8c-1.1,0-2.1,0.4-3.1,1.1L50.8,9V8h-4.1v11.5h4.4V14c0-0.9,0.1-1.5,0.2-1.9C51.6,11.5,52,11.2,52.7,11.2"
		/>
	<path class="st0" d="M63.3,17.7c0.9,1.1,2.2,1.7,3.6,1.7c1,0,2-0.1,2.9-0.8l0.2-0.2v1H74V3.7h-4.3v4.6l-0.2-0.1
		c-0.7-0.5-1.6-0.7-2.6-0.7c-1.4,0-2.5,0.4-3.4,1.3c-1.1,1-1.7,2.6-1.7,4.5C61.9,15.1,62.3,16.6,63.3,17.7 M68,11
		c1,0,1.7,0.8,1.7,2.5c0,1.6-0.8,2.5-1.7,2.5c-1.1,0-1.9-0.8-1.9-2.4C66.1,11.8,66.9,11,68,11"/>
	<path class="st0" d="M42.5,15.5h-5.7l0.3-0.3c1.8-1.5,2.7-2.4,2.9-2.5c1.7-1.5,2.6-3.1,2.6-4.6c0-1.4-0.5-2.5-1.6-3.4
		c-1.1-0.9-2.6-1.4-4.5-1.4c-2.1,0-3.7,0.6-4.7,1.7c-0.7,0.8-1.1,2-1.4,3.6l4.2,0.4c0.1-1.5,0.8-2.2,1.8-2.2c1.2,0,1.5,0.7,1.5,1.4
		c0,0.6-0.3,1.2-0.9,1.9c-0.2,0.2-0.8,0.7-1.8,1.6c-1.9,1.6-3.2,2.9-4,4.1c-0.7,1-1.1,2.3-1.3,3.7h12.4V15.5z"/>
	<path class="st0" d="M22.8,0H3.7C1.6,0,0,1.6,0,3.7c0,0.6,0.2,1.3,0.5,1.8L10,22c0.3,0.6,0.8,1,1.3,1.3c1.8,1,4,0.4,5-1.3l9.5-16.5
		c0.3-0.6,0.5-1.2,0.5-1.8C26.4,1.6,24.8,0,22.8,0z M17.6,12.8v2.4H8.9C9,13,10,11.4,11.3,10.5c0.7-0.5,1.4-1,2.1-1.5
		c0.7-0.6,1.1-1.1,1.2-1.6c0-0.9-0.6-1.2-1.4-1.2c-0.7,0-1.4,0.5-1.5,1.5H9C9,6.8,9.3,6,9.9,5.2c0.7-0.9,2.1-1.4,3.5-1.4
		c1.1,0,2.1,0.3,2.8,0.9c0.8,0.6,1.2,1.4,1.2,2.6c0,0.9-0.3,1.6-0.8,2.3c-0.4,0.6-1,1-1.8,1.4c-0.8,0.4-1.5,0.9-1.9,1.3
		c-0.2,0.2-0.3,0.4-0.4,0.6H17.6z M5.3,9.9C5,10,4.7,10,4.5,9.7c0,0-2.8-4.9-2.8-4.9C1.5,4.4,1.4,4.1,1.4,3.7c0-1.3,1-2.3,2.3-2.3
		h6.8c0-0.3,0.1-0.6,0.2-0.7c0.3-0.3,2.6,0.9,2.6,1.3c0,0.3-2.3,1.6-2.6,1.3c-0.1-0.1-0.2-0.4-0.2-0.7H3.7C3,2.5,2.5,3,2.5,3.7
		c0,0.2,0,0.4,0.1,0.6l2.8,4.9C5.7,9.4,5.6,9.7,5.3,9.9z M19.6,13.6l-4.5,7.7c-0.6,1.1-2,1.5-3.1,0.8c-0.4-0.2-0.6-0.5-0.8-0.8L7,14
		c-0.3,0.1-0.6,0.2-0.7,0.2c-0.4-0.1-0.5-2.7-0.2-2.9c0.3-0.2,2.5,1.2,2.4,1.6c0,0.1-0.3,0.3-0.5,0.5c0,0,0.2,0.3,0.4,0.7
		c-0.1,0.4-0.1,0.7-0.1,1.1l0,0.6h1.1c1.2,2.1,2.8,4.9,2.8,4.9c0.1,0.2,0.2,0.3,0.4,0.4c0.5,0.3,1.2,0.1,1.6-0.4c0,0,0,0,0,0
		c0.1-0.1,0.2-0.3,0.4-0.7l2.5-4.3h1.2v-2l0.4-0.8c0.2-0.3,0.5-0.4,0.8-0.2C19.7,13,19.8,13.4,19.6,13.6z M24.7,4.8l-2.6,4.5
		c0.3,0.2,0.5,0.4,0.5,0.5c0.1,0.4-2.1,1.8-2.4,1.6c-0.3-0.2-0.2-2.8,0.2-2.9c0.1,0,0.4,0.1,0.7,0.2c0.9-1.6,2.6-4.5,2.6-4.5
		c0.1-0.2,0.2-0.4,0.2-0.6c0-0.6-0.5-1.1-1.1-1.1h-7.3c-0.3,0-0.6-0.3-0.6-0.6c0-0.3,0.3-0.6,0.6-0.6h7.3c1.2,0,2.3,1,2.3,2.3
		C25,4.1,24.9,4.4,24.7,4.8z"/>
	<polygon class="st0" points="81.1,23.4 81.1,21.6 87.5,21.6 87.5,23.4 85.5,23.4 85.5,29.3 83.2,29.3 83.2,23.4 	"/>
	<polygon class="st0" points="155.8,23.4 155.8,21.6 162.2,21.6 162.2,23.4 160.1,23.4 160.1,29.3 157.8,29.3 157.8,23.4 	"/>
	<g>
		<polygon class="st0" points="89.9,21.6 87.2,29.3 89.3,29.3 90.9,23.8 92.8,29.3 94.9,29.3 92,21.6 		"/>
		<rect x="89.4" y="26.3" class="st0" width="3.1" height="1.5"/>
	</g>
	<g>
		<polygon class="st0" points="113.1,21.6 110.4,29.3 112.5,29.3 114.1,23.8 116,29.3 118.1,29.3 115.2,21.6 		"/>
		<rect x="112.3" y="26.3" class="st0" width="3.1" height="1.5"/>
	</g>
	<rect x="146.1" y="28" class="st0" width="1.3" height="1.3"/>
	<rect x="170.4" y="28" class="st0" width="1.3" height="1.3"/>
	<g>
		<rect x="148.6" y="28" class="st0" width="1.3" height="1.3"/>
		<polygon class="st0" points="149.3,29.2 149.3,30 149.9,29.3 		"/>
	</g>
	<polygon class="st0" points="98.3,27.3 98.3,22.4 98.3,21.6 96,21.6 96,29.3 98.3,29.3 	"/>
	<g>
		<rect x="151.1" y="27.5" class="st0" width="4.6" height="1.8"/>
		<rect x="151.1" y="21.6" class="st0" width="2.3" height="7.7"/>
	</g>
	<g>
		<polygon class="st0" points="119.1,21.6 119.1,29.3 121.5,29.3 121.5,27.3 121.5,21.6 		"/>
		<polygon class="st0" points="124,21.6 124,29.3 126.3,29.3 126.3,27.3 126.3,21.6 		"/>
	</g>
	<g>
		<polygon class="st0" points="108.3,21.6 110.4,21.6 108.2,29.3 106.3,29.3 		"/>
		<polygon class="st0" points="106,21.6 104,21.6 106.3,29.3 108,29.3 		"/>
	</g>
	<g>
		<polygon class="st0" points="101.7,21.6 99.6,21.6 101.8,29.3 103.7,29.3 		"/>
		<polygon class="st0" points="104,21.6 106,21.6 103.7,29.3 102,29.3 		"/>
	</g>
	<polygon class="st0" points="121.5,21.6 119.6,21.6 124,29.3 125.9,29.3 	"/>
	<path class="st0" d="M134.8,26.5c-0.2,0.9-0.7,1.4-1.5,1.4c-1.1,0-1.7-1.1-1.7-2.5c0-1.3,0.5-2.5,1.7-2.5c0.8,0,1.3,0.6,1.5,1.4
		h2.3c-0.3-1.5-1.5-2.8-3.7-2.8c-2.5,0-4,1.8-4,4c0,2.1,1.3,3.9,3.8,3.9c2,0,3.4-1,3.8-2.8H134.8z"/>
	<g>
		<path class="st0" d="M163.2,21.6c0.7,0,1.5,0,2.4,0c1.5,0,2.5,0.2,3.3,0.7c0.9,0.6,1.4,1.6,1.4,2.9c0,1.6-0.7,2.6-1.4,3.1
			c-0.8,0.6-2.1,0.8-3.7,0.8c-0.9,0-1.6,0-2,0V21.6z M165.3,27.9c0.1,0,0.3,0,0.5,0c1.4,0,2.4-0.7,2.4-2.6c0-1.6-0.9-2.4-2.2-2.4
			c-0.3,0-0.5,0-0.6,0V27.9z"/>
	</g>
	<path class="st0" d="M145.9,25.3c0,2.7-1.6,4-4,4c-2.6,0-3.8-1.8-3.8-3.9c0-2.2,1.5-4,4-4C144.8,21.5,145.9,23.4,145.9,25.3z
		 M140.4,25.4c0,1.5,0.6,2.5,1.7,2.5c1.1,0,1.6-1.1,1.6-2.5c0-1.3-0.5-2.5-1.6-2.5C140.9,22.9,140.4,24.1,140.4,25.4z"/>
</g>
</svg>
